<?xml version="1.0" encoding="UTF-8" standalone="no"?>
<!DOCTYPE svg PUBLIC "-//W3C//DTD SVG 1.1//EN" "http://www.w3.org/Graphics/SVG/1.1/DTD/svg11.dtd">
<svg width="100%" height="100%" viewBox="0 0 1019 400" version="1.1" xmlns="http://www.w3.org/2000/svg" xmlns:xlink="http://www.w3.org/1999/xlink" xml:space="preserve" xmlns:serif="http://www.serif.com/" style="fill-rule:evenodd;clip-rule:evenodd;stroke-miterlimit:1.5;">
    <g transform="matrix(1.62917,0,0,1.31016,0,0)">
        <g id="Layer2">
            <rect x="0" y="0" width="624.924" height="304.706" style="fill:rgb(235,235,235);"/>
        </g>
    </g>
    <g id="Layer1">
        <g transform="matrix(2.95024,0,0,1.08975,-1492.46,-501.663)">
            <rect x="584.019" y="692.644" width="254.111" height="28.762" style="fill:rgb(12,47,67);"/>
        </g>
        <g transform="matrix(1.27426,0,0,1,-447.487,-438.849)">
            <rect x="380.991" y="691.994" width="122.7" height="31.344" style="fill:rgb(124,132,134);"/>
        </g>
        <g transform="matrix(1,0,0,1,-331.346,-495.275)">
            <g transform="matrix(58.3333,0,0,58.3333,1150.54,856.257)">
            </g>
            <text x="366.918px" y="856.257px" style="font-family:'Helvetica-Bold', 'Helvetica';font-weight:700;font-size:58.333px;fill:rgb(12,47,67);">S<tspan x="461.243px 562.033px 653.082px 750.625px 841.674px 913.298px 1014.09px 1111.63px " y="856.257px 856.257px 856.257px 856.257px 856.257px 856.257px 856.257px 856.257px ">OLUTIONS</tspan></text>
        </g>
        <g transform="matrix(1,0,0,1,-362.768,-440.1)">
            <g transform="matrix(270.833,0,0,270.833,933.22,669.08)">
            </g>
            <text x="380.991px" y="669.08px" style="font-family:'AvenirNext-Bold', 'Avenir Next', sans-serif;font-weight:700;font-size:270.833px;fill:rgb(80,86,86);">R<tspan x="574.095px 752.032px " y="669.08px 669.08px ">EY</tspan></text>
        </g>
        <g transform="matrix(0.954369,0,0,1,-297.16,-438.849)">
            <path d="M928.603,593.631L1004.52,593.631" style="fill:none;stroke:rgb(124,132,134);stroke-width:7.25px;"/>
        </g>
        <g transform="matrix(1,0,0,1,-359.229,-440.1)">
            <g transform="matrix(270.833,0,0,270.833,1305.38,669.08)">
            </g>
            <text x="1048.36px" y="669.08px" style="font-family:'AvenirNext-Bold', 'Avenir Next', sans-serif;font-weight:700;font-size:270.833px;fill:rgb(80,86,86);">I<tspan x="1148.03px " y="669.08px ">T</tspan></text>
        </g>
        <g transform="matrix(0.906905,0,0,0.846334,-255.838,-356.619)">
            <path d="M936.244,487.079L936.244,535.125L1011.53,535.125" style="fill:none;stroke:rgb(124,132,134);stroke-width:8.08px;"/>
        </g>
        <g transform="matrix(0.76366,0,0,0.76366,-8.88425,-292.143)">
            <path d="M886.642,571.955C893.975,571.955 899.927,577.908 899.927,585.24C899.927,592.572 893.975,598.525 886.642,598.525C879.31,598.525 873.357,592.572 873.357,585.24C873.357,577.908 879.31,571.955 886.642,571.955ZM886.642,580.139C883.827,580.139 881.541,582.425 881.541,585.24C881.541,588.055 883.827,590.341 886.642,590.341C889.457,590.341 891.743,588.055 891.743,585.24C891.743,582.425 889.457,580.139 886.642,580.139Z" style="fill:rgb(12,47,67);"/>
        </g>
        <g transform="matrix(0.76366,0,0,0.76366,-8.88425,-350.649)">
            <path d="M886.642,571.955C893.975,571.955 899.927,577.908 899.927,585.24C899.927,592.572 893.975,598.525 886.642,598.525C879.31,598.525 873.357,592.572 873.357,585.24C873.357,577.908 879.31,571.955 886.642,571.955ZM886.642,580.139C883.827,580.139 881.541,582.425 881.541,585.24C881.541,588.055 883.827,590.341 886.642,590.341C889.457,590.341 891.743,588.055 891.743,585.24C891.743,582.425 889.457,580.139 886.642,580.139Z" style="fill:rgb(12,47,67);"/>
        </g>
        <g transform="matrix(0.76366,0,0,0.76366,-8.88425,-292.143)">
            <path d="M886.642,571.955C893.975,571.955 899.927,577.908 899.927,585.24C899.927,592.572 893.975,598.525 886.642,598.525C879.31,598.525 873.357,592.572 873.357,585.24C873.357,577.908 879.31,571.955 886.642,571.955ZM886.642,580.139C883.827,580.139 881.541,582.425 881.541,585.24C881.541,588.055 883.827,590.341 886.642,590.341C889.457,590.341 891.743,588.055 891.743,585.24C891.743,582.425 889.457,580.139 886.642,580.139Z" style="fill:rgb(12,47,67);"/>
        </g>
        <g transform="matrix(0.76366,0,0,0.76366,-83.8459,-397.17)">
            <path d="M886.642,571.955C893.975,571.955 899.927,577.908 899.927,585.24C899.927,592.572 893.975,598.525 886.642,598.525C879.31,598.525 873.357,592.572 873.357,585.24C873.357,577.908 879.31,571.955 886.642,571.955ZM886.642,580.139C883.827,580.139 881.541,582.425 881.541,585.24C881.541,588.055 883.827,590.341 886.642,590.341C889.457,590.341 891.743,588.055 891.743,585.24C891.743,582.425 889.457,580.139 886.642,580.139Z" style="fill:rgb(12,47,67);"/>
        </g>
        <g transform="matrix(1,0,0,1.01804,-339.442,-448.501)">
            <path d="M1260.03,535.125L1260.03,635.475" style="fill:none;stroke:rgb(124,132,134);stroke-width:7.02px;"/>
        </g>
        <g transform="matrix(1,0,0,0.99638,-348.315,-436.549)">
            <path d="M1296.45,638.467L1296.45,538.272L1311.21,538.251" style="fill:none;stroke:rgb(124,132,134);stroke-width:7.1px;"/>
        </g>
        <g transform="matrix(0.997796,0,0,1,-340.783,-438.849)">
            <path d="M931.908,564.638L1004.52,564.638" style="fill:none;stroke:rgb(124,132,134);stroke-width:7.09px;"/>
        </g>
        <g transform="matrix(0.76366,0,0,0.76366,292.991,-347.171)">
            <path d="M886.642,571.955C893.975,571.955 899.927,577.908 899.927,585.24C899.927,592.572 893.975,598.525 886.642,598.525C879.31,598.525 873.357,592.572 873.357,585.24C873.357,577.908 879.31,571.955 886.642,571.955ZM886.642,580.139C883.827,580.139 881.541,582.425 881.541,585.24C881.541,588.055 883.827,590.341 886.642,590.341C889.457,590.341 891.743,588.055 891.743,585.24C891.743,582.425 889.457,580.139 886.642,580.139Z" style="fill:rgb(12,47,67);"/>
        </g>
        <g transform="matrix(0.76366,0,0,0.76366,-8.88425,-321.136)">
            <path d="M886.642,571.955C893.975,571.955 899.927,577.908 899.927,585.24C899.927,592.572 893.975,598.525 886.642,598.525C879.31,598.525 873.357,592.572 873.357,585.24C873.357,577.908 879.31,571.955 886.642,571.955ZM886.642,580.139C883.827,580.139 881.541,582.425 881.541,585.24C881.541,588.055 883.827,590.341 886.642,590.341C889.457,590.341 891.743,588.055 891.743,585.24C891.743,582.425 889.457,580.139 886.642,580.139Z" style="fill:rgb(12,47,67);"/>
        </g>
        <g transform="matrix(0.76366,0,0,0.76366,243.496,-240.153)">
            <path d="M886.642,571.955C893.975,571.955 899.927,577.908 899.927,585.24C899.927,592.572 893.975,598.525 886.642,598.525C879.31,598.525 873.357,592.572 873.357,585.24C873.357,577.908 879.31,571.955 886.642,571.955ZM886.642,580.139C883.827,580.139 881.541,582.425 881.541,585.24C881.541,588.055 883.827,590.341 886.642,590.341C889.457,590.341 891.743,588.055 891.743,585.24C891.743,582.425 889.457,580.139 886.642,580.139Z" style="fill:rgb(12,47,67);"/>
        </g>
        <g transform="matrix(0.76366,0,0,0.76366,271.039,-240.153)">
            <path d="M886.642,571.955C893.975,571.955 899.927,577.908 899.927,585.24C899.927,592.572 893.975,598.525 886.642,598.525C879.31,598.525 873.357,592.572 873.357,585.24C873.357,577.908 879.31,571.955 886.642,571.955ZM886.642,580.139C883.827,580.139 881.541,582.425 881.541,585.24C881.541,588.055 883.827,590.341 886.642,590.341C889.457,590.341 891.743,588.055 891.743,585.24C891.743,582.425 889.457,580.139 886.642,580.139Z" style="fill:rgb(12,47,67);"/>
        </g>
    </g>
</svg>
